<svg xmlns="http://www.w3.org/2000/svg" width="1280" height="1060" viewBox="0 0 1280 1060" font-family="'Segoe UI', system-ui, sans-serif">
  <defs>
    <linearGradient id="bg" x1="0" y1="0" x2="0" y2="1">
      <stop offset="0" stop-color="#23272E"/>
      <stop offset="1" stop-color="#1d2127"/>
    </linearGradient>
    <linearGradient id="hero" x1="0" y1="0" x2="1" y2="1">
      <stop offset="0" stop-color="#0d2818"/>
      <stop offset="1" stop-color="#1a3a26"/>
    </linearGradient>
    <linearGradient id="spark" x1="0" y1="0" x2="0" y2="1">
      <stop offset="0" stop-color="#22c55e" stop-opacity="0.6"/>
      <stop offset="1" stop-color="#22c55e" stop-opacity="0"/>
    </linearGradient>
    <linearGradient id="sparkO" x1="0" y1="0" x2="0" y2="1">
      <stop offset="0" stop-color="#ed9355" stop-opacity="0.5"/>
      <stop offset="1" stop-color="#ed9355" stop-opacity="0"/>
    </linearGradient>
    <filter id="soft" x="-20%" y="-20%" width="140%" height="140%">
      <feDropShadow dx="0" dy="6" stdDeviation="10" flood-color="#000" flood-opacity="0.25"/>
    </filter>
  </defs>

  <!-- canvas -->
  <rect width="1280" height="1060" fill="url(#bg)"/>

  <!-- top bar -->
  <text x="32" y="40" font-family="Georgia, serif" font-size="22" font-weight="700" fill="#f5f5f7">A<tspan fill="#ed9355">finanças</tspan></text>
  <text x="200" y="39" font-size="12.5" fill="#a3a8b3">Painel</text>
  <text x="270" y="39" font-size="12.5" fill="#6e7480">Contas</text>
  <text x="340" y="39" font-size="12.5" fill="#6e7480">Centro de controle</text>
  <text x="490" y="39" font-size="12.5" fill="#6e7480">Investimentos</text>
  <circle cx="1230" cy="34" r="16" fill="#ed9355"/>
  <text x="1230" y="39" font-size="13" font-weight="700" fill="#23272E" text-anchor="middle">P</text>

  <!-- mockup tag -->
  <rect x="32" y="58" width="290" height="22" rx="11" fill="#ed935522" stroke="#ed935566"/>
  <text x="44" y="73" font-size="11.5" fill="#ed9355" letter-spacing="1">PROPOSTA VISUAL · MOCKUP</text>

  <!-- greeting -->
  <text x="32" y="124" font-family="Georgia, serif" font-size="32" font-weight="600" fill="#f5f5f7">Boa noite, Paulo<tspan font-style="italic" fill="#ed9355"> 👋</tspan></text>
  <text x="32" y="148" font-size="13.5" fill="#a3a8b3">Aqui está o resumo da sua vida financeira.</text>
  <text x="640" y="116" font-size="11" fill="#ed9355" text-anchor="end">①  título em fonte display (serif real)</text>

  <!-- ===== ROW 1: hero + próximo compromisso ===== -->
  <!-- hero patrimonio -->
  <g filter="url(#soft)">
    <rect x="32" y="172" width="780" height="210" rx="20" fill="url(#hero)"/>
  </g>
  <text x="56" y="206" font-size="12.5" fill="#86efac" letter-spacing="0.5">Patrimônio Total</text>
  <text x="56" y="252" font-family="Georgia, serif" font-size="46" font-weight="700" fill="#ffffff" letter-spacing="-1">R$ 1.171.020<tspan font-size="26" fill="#cde6d6">,33</tspan></text>
  <text x="56" y="276" font-size="12.5" fill="#86efac">↗ 2,14% <tspan fill="#ffffff" fill-opacity="0.55">vs mês anterior</tspan></text>

  <!-- count-up note -->
  <text x="320" y="206" font-size="11" fill="#9fe9bd" opacity="0.9">② número anima (count-up) ao revelar</text>

  <!-- breakdown -->
  <g font-size="12" fill="#d7f0e0">
    <text x="56" y="312">Contas</text><text x="300" y="312" text-anchor="end" font-weight="600">+ R$ 585.630</text>
    <text x="56" y="332">A receber (ano)</text><text x="300" y="332" text-anchor="end" font-weight="600">+ R$ 704.950</text>
    <text x="56" y="352">Investimentos (BR)</text><text x="300" y="352" text-anchor="end" font-weight="600">+ R$ 41.499</text>
    <text x="56" y="372">A pagar (ano)</text><text x="300" y="372" text-anchor="end" font-weight="600" fill="#fca5a5">− R$ 161.058</text>
  </g>

  <!-- hero area sparkline -->
  <path d="M430 360 L470 350 L510 356 L550 338 L590 344 L630 322 L670 330 L710 300 L760 288 L788 296 L788 382 L430 382 Z" fill="url(#spark)"/>
  <path d="M430 360 L470 350 L510 356 L550 338 L590 344 L630 322 L670 330 L710 300 L760 288 L788 296" fill="none" stroke="#22c55e" stroke-width="2"/>
  <text x="788" y="214" font-size="11" fill="#86efac" text-anchor="end">evolução 12 meses</text>

  <!-- proximo compromisso -->
  <g filter="url(#soft)"><rect x="836" y="172" width="412" height="210" rx="20" fill="#2d323b" stroke="#343a44"/></g>
  <text x="860" y="204" font-size="12.5" fill="#a3a8b3">⚠  Próximo compromisso</text>
  <text x="860" y="246" font-family="Georgia, serif" font-size="30" font-weight="700" fill="#f5f5f7">R$ 2.553,00</text>
  <text x="860" y="270" font-size="12" fill="#f87171">BOA BOLA · atrasado · 15/07</text>
  <line x1="860" y1="294" x2="1224" y2="294" stroke="#343a44"/>
  <text x="860" y="322" font-size="12" fill="#a3a8b3">Total a pagar · mês (8)</text>
  <text x="1224" y="322" font-size="15" font-weight="700" fill="#f87171" text-anchor="end">R$ 161.058</text>
  <!-- mini bars of upcoming -->
  <g fill="#ed9355" opacity="0.85">
    <rect x="860" y="344" width="14" height="22" rx="3"/>
    <rect x="884" y="338" width="14" height="28" rx="3"/>
    <rect x="908" y="350" width="14" height="16" rx="3"/>
    <rect x="932" y="332" width="14" height="34" rx="3"/>
    <rect x="956" y="348" width="14" height="18" rx="3"/>
  </g>
  <text x="1224" y="362" font-size="10.5" fill="#6e7480" text-anchor="end">próximos vencimentos</text>

  <!-- ===== ROW 2: KPIs com sparkline ===== -->
  <g>
    <!-- card 1 -->
    <g filter="url(#soft)"><rect x="32" y="402" width="389" height="128" rx="16" fill="#2d323b" stroke="#343a44"/></g>
    <text x="52" y="430" font-size="11.5" fill="#a3a8b3">Total em Contas</text>
    <text x="52" y="462" font-family="Georgia, serif" font-size="24" font-weight="700" fill="#f5f5f7">R$ 585.630</text>
    <text x="52" y="482" font-size="10.5" fill="#6e7480">6 contas ativas</text>
    <path d="M250 500 L270 494 L290 498 L310 486 L330 490 L350 478 L370 482 L390 470 L405 474 L405 512 L250 512 Z" fill="url(#spark)"/>
    <path d="M250 500 L270 494 L290 498 L310 486 L330 490 L350 478 L370 482 L390 470 L405 474" fill="none" stroke="#4ade80" stroke-width="1.6"/>

    <!-- card 2 -->
    <g filter="url(#soft)"><rect x="445" y="402" width="389" height="128" rx="16" fill="#2d323b" stroke="#343a44"/></g>
    <text x="465" y="430" font-size="11.5" fill="#a3a8b3">A Receber</text>
    <text x="465" y="462" font-family="Georgia, serif" font-size="24" font-weight="700" fill="#f5f5f7">R$ 704.950</text>
    <text x="465" y="482" font-size="10.5" fill="#6e7480">40 em aberto</text>
    <path d="M663 502 L683 498 L703 492 L723 496 L743 484 L763 488 L783 476 L803 472 L818 468 L818 512 L663 512 Z" fill="url(#sparkO)"/>
    <path d="M663 502 L683 498 L703 492 L723 496 L743 484 L763 488 L783 476 L803 472 L818 468" fill="none" stroke="#ed9355" stroke-width="1.6"/>

    <!-- card 3 -->
    <g filter="url(#soft)"><rect x="859" y="402" width="389" height="128" rx="16" fill="#2d323b" stroke="#343a44"/></g>
    <text x="879" y="430" font-size="11.5" fill="#a3a8b3">Proventos · mês</text>
    <text x="879" y="462" font-family="Georgia, serif" font-size="24" font-weight="700" fill="#f5f5f7">R$ 3.180</text>
    <text x="879" y="482" font-size="10.5" fill="#6e7480">receita passiva</text>
    <g fill="#4ade80" opacity="0.85">
      <rect x="1085" y="492" width="12" height="20" rx="2"/>
      <rect x="1105" y="486" width="12" height="26" rx="2"/>
      <rect x="1125" y="498" width="12" height="14" rx="2"/>
      <rect x="1145" y="480" width="12" height="32" rx="2"/>
      <rect x="1165" y="490" width="12" height="22" rx="2"/>
      <rect x="1185" y="476" width="12" height="36" rx="2"/>
      <rect x="1205" y="488" width="12" height="24" rx="2"/>
      <rect x="1225" y="494" width="12" height="18" rx="2"/>
    </g>
  </g>
  <text x="1248" y="396" font-size="11" fill="#ed9355" text-anchor="end">③ sparkline de tendência em cada KPI</text>

  <!-- ===== ROW 3: donut + gauge + heatmap ===== -->
  <!-- donut alocacao -->
  <g filter="url(#soft)"><rect x="32" y="552" width="389" height="270" rx="16" fill="#2d323b" stroke="#343a44"/></g>
  <text x="52" y="582" font-family="Georgia, serif" font-size="16" font-weight="600" fill="#f5f5f7">Alocação por Classe</text>
  <g transform="translate(150,700)">
    <circle r="64" fill="none" stroke="#343a44" stroke-width="22"/>
    <!-- segments via dasharray (circumference ~ 402) -->
    <circle r="64" fill="none" stroke="#ed9355" stroke-width="22" stroke-dasharray="169 233" transform="rotate(-90)"/>
    <circle r="64" fill="none" stroke="#60a5fa" stroke-width="22" stroke-dasharray="101 301" stroke-dashoffset="-169" transform="rotate(-90)"/>
    <circle r="64" fill="none" stroke="#4ade80" stroke-width="22" stroke-dasharray="72 330" stroke-dashoffset="-270" transform="rotate(-90)"/>
    <circle r="64" fill="none" stroke="#fbbf24" stroke-width="22" stroke-dasharray="60 342" stroke-dashoffset="-342" transform="rotate(-90)"/>
    <text x="0" y="-4" font-family="Georgia, serif" font-size="22" font-weight="700" fill="#f5f5f7" text-anchor="middle">42%</text>
    <text x="0" y="16" font-size="10.5" fill="#a3a8b3" text-anchor="middle">Ações</text>
  </g>
  <g font-size="11" fill="#a3a8b3">
    <rect x="250" y="636" width="10" height="10" rx="2" fill="#ed9355"/><text x="268" y="645">Ações 42%</text>
    <rect x="250" y="660" width="10" height="10" rx="2" fill="#60a5fa"/><text x="268" y="669">FIIs 25%</text>
    <rect x="250" y="684" width="10" height="10" rx="2" fill="#4ade80"/><text x="268" y="693">Renda Fixa 18%</text>
    <rect x="250" y="708" width="10" height="10" rx="2" fill="#fbbf24"/><text x="268" y="717">Cripto 15%</text>
  </g>
  <text x="410" y="582" font-size="11" fill="#ed9355" text-anchor="end">④ donut c/ centro</text>

  <!-- gauge meta -->
  <g filter="url(#soft)"><rect x="445" y="552" width="389" height="270" rx="16" fill="#2d323b" stroke="#343a44"/></g>
  <text x="465" y="582" font-family="Georgia, serif" font-size="16" font-weight="600" fill="#f5f5f7">Meta · Reserva</text>
  <g transform="translate(639,712)">
    <path d="M -120 0 A 120 120 0 0 1 120 0" fill="none" stroke="#343a44" stroke-width="20" stroke-linecap="round"/>
    <path d="M -120 0 A 120 120 0 0 1 96 -72" fill="none" stroke="#ed9355" stroke-width="20" stroke-linecap="round"/>
    <text x="0" y="-26" font-family="Georgia, serif" font-size="34" font-weight="700" fill="#f5f5f7" text-anchor="middle">68%</text>
    <text x="0" y="0" font-size="11.5" fill="#a3a8b3" text-anchor="middle">R$ 34.000 / R$ 50.000</text>
  </g>
  <text x="639" y="800" font-size="11" fill="#86efac" text-anchor="middle">faltam R$ 16.000 · no ritmo, conclui em set/26</text>
  <text x="824" y="582" font-size="11" fill="#ed9355" text-anchor="end">⑤ gauge radial de meta</text>

  <!-- heatmap gastos -->
  <g filter="url(#soft)"><rect x="859" y="552" width="389" height="270" rx="16" fill="#2d323b" stroke="#343a44"/></g>
  <text x="879" y="582" font-family="Georgia, serif" font-size="16" font-weight="600" fill="#f5f5f7">Gastos · mapa de calor</text>
  <text x="879" y="602" font-size="10.5" fill="#6e7480">intensidade por dia (últimas semanas)</text>
  <g transform="translate(879,620)">
    <!-- 7 cols x 5 rows of day cells -->
    <g>
      <rect x="0"  y="0"  width="22" height="22" rx="4" fill="#ed935522"/>
      <rect x="28" y="0"  width="22" height="22" rx="4" fill="#ed935544"/>
      <rect x="56" y="0"  width="22" height="22" rx="4" fill="#ed935588"/>
      <rect x="84" y="0"  width="22" height="22" rx="4" fill="#ed9355cc"/>
      <rect x="112" y="0" width="22" height="22" rx="4" fill="#ed935533"/>
      <rect x="140" y="0" width="22" height="22" rx="4" fill="#ed935566"/>
      <rect x="168" y="0" width="22" height="22" rx="4" fill="#ed9355aa"/>
    </g>
    <g transform="translate(0,28)">
      <rect x="0"  y="0"  width="22" height="22" rx="4" fill="#ed935544"/>
      <rect x="28" y="0"  width="22" height="22" rx="4" fill="#ed9355ee"/>
      <rect x="56" y="0"  width="22" height="22" rx="4" fill="#ed935522"/>
      <rect x="84" y="0"  width="22" height="22" rx="4" fill="#ed935577"/>
      <rect x="112" y="0" width="22" height="22" rx="4" fill="#ed9355bb"/>
      <rect x="140" y="0" width="22" height="22" rx="4" fill="#ed935533"/>
      <rect x="168" y="0" width="22" height="22" rx="4" fill="#ed935599"/>
    </g>
    <g transform="translate(0,56)">
      <rect x="0"  y="0"  width="22" height="22" rx="4" fill="#ed9355cc"/>
      <rect x="28" y="0"  width="22" height="22" rx="4" fill="#ed935533"/>
      <rect x="56" y="0"  width="22" height="22" rx="4" fill="#ed935566"/>
      <rect x="84" y="0"  width="22" height="22" rx="4" fill="#ed9355ff"/>
      <rect x="112" y="0" width="22" height="22" rx="4" fill="#ed935544"/>
      <rect x="140" y="0" width="22" height="22" rx="4" fill="#ed935588"/>
      <rect x="168" y="0" width="22" height="22" rx="4" fill="#ed935522"/>
    </g>
    <g transform="translate(0,84)">
      <rect x="0"  y="0"  width="22" height="22" rx="4" fill="#ed935566"/>
      <rect x="28" y="0"  width="22" height="22" rx="4" fill="#ed935599"/>
      <rect x="56" y="0"  width="22" height="22" rx="4" fill="#ed9355dd"/>
      <rect x="84" y="0"  width="22" height="22" rx="4" fill="#ed935533"/>
      <rect x="112" y="0" width="22" height="22" rx="4" fill="#ed935577"/>
      <rect x="140" y="0" width="22" height="22" rx="4" fill="#ed9355bb"/>
      <rect x="168" y="0" width="22" height="22" rx="4" fill="#ed935544"/>
    </g>
  </g>
  <g font-size="10" fill="#6e7480" transform="translate(879,742)">
    <text x="0" y="0">menos</text>
    <rect x="44" y="-9" width="11" height="11" rx="2" fill="#ed935533"/>
    <rect x="59" y="-9" width="11" height="11" rx="2" fill="#ed935577"/>
    <rect x="74" y="-9" width="11" height="11" rx="2" fill="#ed9355bb"/>
    <rect x="89" y="-9" width="11" height="11" rx="2" fill="#ed9355ff"/>
    <text x="108" y="0">mais</text>
  </g>
  <text x="1248" y="582" font-size="11" fill="#ed9355" text-anchor="end">⑥ heatmap de gastos</text>

  <!-- ===== ROW 4: empty state ilustrado + contas com logo ===== -->
  <!-- empty state -->
  <g filter="url(#soft)"><rect x="32" y="844" width="600" height="184" rx="16" fill="#2d323b" stroke="#343a44"/></g>
  <text x="52" y="874" font-family="Georgia, serif" font-size="16" font-weight="600" fill="#f5f5f7">Empty states ilustrados</text>
  <!-- little illustration: piggy / wallet -->
  <g transform="translate(150,955)">
    <circle cx="0" cy="0" r="46" fill="#ed935518" stroke="#ed935544"/>
    <rect x="-26" y="-14" width="52" height="34" rx="9" fill="none" stroke="#ed9355" stroke-width="3"/>
    <circle cx="14" cy="3" r="4" fill="#ed9355"/>
    <path d="M -26 -6 L -34 -14 L -20 -14" fill="none" stroke="#ed9355" stroke-width="3" stroke-linejoin="round"/>
  </g>
  <text x="230" y="935" font-size="13" fill="#f5f5f7" font-weight="600">Nenhuma transação ainda</text>
  <text x="230" y="958" font-size="11.5" fill="#a3a8b3">Adicione a primeira pra ver seus gráficos</text>
  <rect x="230" y="972" width="150" height="30" rx="8" fill="#ed9355"/>
  <text x="305" y="992" font-size="12" font-weight="600" fill="#23272E" text-anchor="middle">+ Nova transação</text>
  <text x="612" y="874" font-size="11" fill="#ed9355" text-anchor="end">⑦ ilustração + CTA</text>

  <!-- contas com logo -->
  <g filter="url(#soft)"><rect x="648" y="844" width="600" height="184" rx="16" fill="#2d323b" stroke="#343a44"/></g>
  <text x="668" y="874" font-family="Georgia, serif" font-size="16" font-weight="600" fill="#f5f5f7">Contas com ícone da instituição</text>
  <!-- row 1 -->
  <g transform="translate(668,892)">
    <rect x="0" y="0" width="560" height="40" rx="10" fill="#23272E"/>
    <circle cx="24" cy="20" r="13" fill="#ff7a00"/><text x="24" y="24" font-size="11" font-weight="700" fill="#fff" text-anchor="middle">N</text>
    <text x="48" y="24" font-size="12.5" fill="#f5f5f7">Nubank · Conta</text>
    <text x="544" y="24" font-size="13" font-weight="700" fill="#f5f5f7" text-anchor="end">R$ 12.430</text>
  </g>
  <g transform="translate(668,938)">
    <rect x="0" y="0" width="560" height="40" rx="10" fill="#23272E"/>
    <circle cx="24" cy="20" r="13" fill="#ec7000"/><text x="24" y="24" font-size="10" font-weight="700" fill="#fff" text-anchor="middle">Inter</text>
    <text x="48" y="24" font-size="12.5" fill="#f5f5f7">Inter · Conta</text>
    <text x="544" y="24" font-size="13" font-weight="700" fill="#f5f5f7" text-anchor="end">R$ 48.900</text>
  </g>
  <g transform="translate(668,984)">
    <rect x="0" y="0" width="560" height="34" rx="10" fill="#23272E"/>
    <circle cx="24" cy="17" r="13" fill="#00374a"/><text x="24" y="21" font-size="10" font-weight="700" fill="#fff" text-anchor="middle">XP</text>
    <text x="48" y="21" font-size="12.5" fill="#f5f5f7">XP · Investimentos</text>
    <text x="544" y="21" font-size="13" font-weight="700" fill="#f5f5f7" text-anchor="end">R$ 41.499</text>
  </g>

  <!-- footer note -->
  <text x="32" y="1050" font-size="11" fill="#6e7480">Mockup conceitual · cores do tema atual (laranja #ed9355) · tipografia display serif nos títulos e números</text>
</svg>
